<svg width="16" height="16" viewBox="0 0 16 16" fill="none" xmlns="http://www.w3.org/2000/svg">
<path d="M2.1333 10.3999C2.1333 9.84762 2.58102 9.3999 3.1333 9.3999H4.3333C4.88558 9.3999 5.3333 9.84762 5.3333 10.3999V13.6666H2.1333V10.3999Z" fill="#388B76"/>
<path d="M6.3999 4C6.3999 3.44772 6.84762 3 7.3999 3H8.5999C9.15219 3 9.5999 3.44772 9.5999 4V13.6667H6.3999V4Z" fill="#1A48B0"/>
<path d="M10.6665 7.2002C10.6665 6.64791 11.1142 6.2002 11.6665 6.2002H12.8665C13.4188 6.2002 13.8665 6.64791 13.8665 7.2002V13.6669H10.6665V7.2002Z" fill="#DE4341"/>
<rect y="13.6665" width="16" height="1.06667" rx="0.533333" fill="#55534E"/>
</svg>
